<svg width="33" height="33" viewBox="0 0 33 33" fill="none" xmlns="http://www.w3.org/2000/svg">
<path fill-rule="evenodd" clip-rule="evenodd" d="M29.9057 0H3.0943C1.3928 0 0 1.39275 0 3.0943V29.9057C0 31.6072 1.3928 33 3.0943 33H29.9057C31.6072 33 33 31.6072 33 29.9057V3.09425C33 1.39275 31.6072 0 29.9057 0ZM18.7594 8.96133H22.5308V4.43833H18.7594C15.8551 4.43833 13.4855 6.80728 13.4855 9.71525V11.9758H10.4698V16.5H13.4849V28.5617H18.0085V16.5H21.7763L22.5308 11.9758H18.0084V9.71525C18.0084 9.30596 18.3538 8.96133 18.7594 8.96133Z" fill="#1D1D20"/>
</svg>
