<svg width="33" height="33" viewBox="0 0 33 33" fill="none" xmlns="http://www.w3.org/2000/svg">
<path d="M16.4973 0C12.0166 0 11.4528 0.0187988 9.69436 0.0993652C8.32626 0.127181 6.97279 0.386885 5.69151 0.867432C4.59026 1.27929 3.59306 1.92842 2.77058 2.7688C1.93123 3.59322 1.28087 4.59015 0.864465 5.69067C0.383887 6.97315 0.125145 8.32813 0.0993329 9.69751C0.0214774 11.4565 0 12.0178 0 16.5C0 20.9822 0.0187927 21.5408 0.0993329 23.3025C0.127139 24.671 0.386759 26.0249 0.867149 27.3066C1.2809 28.4072 1.92955 29.4043 2.7679 30.2285C3.59134 31.069 4.58815 31.7197 5.68882 32.1353C6.97124 32.6147 8.32556 32.8735 9.69436 32.9006C11.4528 32.9812 12.0139 33 16.4946 33C20.9754 33 21.5338 32.9812 23.2949 32.9006C24.6637 32.8735 26.018 32.6147 27.3004 32.1353C28.3975 31.7096 29.3938 31.0599 30.2258 30.2276C31.0579 29.3953 31.7073 28.3987 32.1329 27.3013C32.6107 26.0189 32.8702 24.6654 32.9007 23.2971C32.9785 21.5381 33 20.9768 33 16.4946C33 12.0125 32.9785 11.4512 32.9007 9.69214C32.8702 8.32301 32.6107 6.96865 32.1329 5.6853C31.7185 4.5844 31.0689 3.58724 30.2294 2.76343C29.4074 1.92243 28.4101 1.27321 27.3085 0.862061C26.0226 0.382157 24.6645 0.124256 23.2922 0.0993652C21.5311 0.0187988 20.9727 0 16.4919 0H16.4973ZM15.0154 2.9729H16.4973C20.9002 2.9729 21.421 2.98901 23.1607 3.06958C24.2067 3.08149 25.2428 3.27316 26.2239 3.63623C26.9401 3.90091 27.5879 4.32308 28.1193 4.87158C28.6665 5.40408 29.0883 6.05174 29.3542 6.76758C29.7172 7.74897 29.9088 8.78546 29.9207 9.83179C30.0012 11.5693 30.0173 12.093 30.0173 16.4973C30.0173 20.9016 30.0012 21.4226 29.9207 23.1628C29.9091 24.2083 29.7174 25.244 29.3542 26.2244C29.0794 26.9354 28.659 27.5811 28.1199 28.1199C27.5808 28.6587 26.9349 29.0788 26.2239 29.353C25.2435 29.7189 24.207 29.9115 23.1607 29.9224C21.4237 30.0029 20.9002 30.019 16.4973 30.019C12.0945 30.019 11.5709 30.0029 9.83127 29.9224C8.78513 29.9096 7.74897 29.717 6.76806 29.353C6.05109 29.0895 5.40244 28.6682 4.87 28.1204C4.32264 27.5885 3.90155 26.9406 3.63773 26.2244C3.27387 25.2431 3.08135 24.2066 3.06858 23.1602C2.99073 21.4199 2.97462 20.8989 2.97462 16.4919C2.97462 12.085 2.99073 11.5667 3.06858 9.82642C3.07973 8.77977 3.27231 7.743 3.63773 6.76221C3.90155 6.04596 4.32264 5.39805 4.87 4.86621C5.40286 4.31822 6.05133 3.89617 6.76806 3.63086C7.74928 3.268 8.78524 3.07546 9.83127 3.06152C11.3535 2.99438 11.9414 2.9729 15.0154 2.97021V2.9729ZM25.3004 5.71216C24.9084 5.71216 24.5252 5.82846 24.1993 6.04636C23.8735 6.26426 23.6195 6.57395 23.4696 6.93626C23.3198 7.29857 23.2807 7.69721 23.3573 8.08174C23.434 8.46627 23.623 8.81941 23.9003 9.09648C24.1777 9.37355 24.531 9.5621 24.9155 9.63827C25.3 9.71444 25.6984 9.67481 26.0604 9.52439C26.4224 9.37397 26.7317 9.11952 26.949 8.79324C27.1664 8.46696 27.2822 8.08351 27.2816 7.69141C27.2816 7.43126 27.2304 7.17367 27.1308 6.93336C27.0312 6.69305 26.8852 6.47474 26.7012 6.29092C26.5172 6.10709 26.2987 5.96136 26.0584 5.86205C25.818 5.76274 25.5604 5.71181 25.3004 5.71216ZM16.4973 8.0271C14.8221 8.0271 13.1845 8.52403 11.7916 9.45504C10.3986 10.3861 9.31301 11.7093 8.67192 13.2576C8.03084 14.8058 7.8631 16.5094 8.18992 18.153C8.51675 19.7966 9.32345 21.3063 10.508 22.4912C11.6926 23.6762 13.2018 24.4832 14.8449 24.8101C16.4879 25.137 18.191 24.9692 19.7387 24.3279C21.2864 23.6866 22.6093 22.6007 23.54 21.2073C24.4707 19.8139 24.9675 18.1758 24.9675 16.5C24.9667 14.2531 24.0741 12.0984 22.4858 10.5095C20.8975 8.92072 18.7435 8.02781 16.4973 8.0271ZM16.4973 11C17.5851 10.9984 18.6489 11.3196 19.5541 11.923C20.4594 12.5264 21.1654 13.3848 21.5827 14.3897C22.0001 15.3945 22.1102 16.5006 21.8989 17.5681C21.6877 18.6355 21.1647 19.6162 20.396 20.3862C19.6274 21.1562 18.6478 21.6809 17.581 21.8937C16.5142 22.1066 15.4083 21.9981 14.4032 21.5821C13.398 21.1661 12.5388 20.4611 11.9343 19.5565C11.3298 18.6518 11.0072 17.5881 11.0072 16.5C11.01 15.0446 11.5894 13.6496 12.6185 12.6207C13.6476 11.5918 15.0424 11.0129 16.4973 11.0107V11Z" fill="#1D1D20"/>
</svg>
