<svg width="33" height="33" viewBox="0 0 33 33" fill="none" xmlns="http://www.w3.org/2000/svg">
<path fill-rule="evenodd" clip-rule="evenodd" d="M29.9062 0H3.09375C1.39219 0 0 1.39219 0 3.09375V29.9062C0 31.6078 1.39219 33 3.09375 33H29.9062C31.6078 33 33 31.6078 33 29.9062V3.09375C33 1.39219 31.6078 0 29.9062 0ZM12.3746 26.8124H8.25032V12.3746H12.3746V26.8124ZM10.3118 10.3118C9.1718 10.3118 8.2497 9.38979 8.2497 8.24969C8.2497 7.10903 9.17174 6.18698 10.3118 6.18698C11.4525 6.18698 12.3746 7.10903 12.3746 8.24969C12.3746 9.38974 11.4525 10.3118 10.3118 10.3118ZM26.8125 26.8124H22.6882V18.5628C22.6882 17.4221 21.7656 16.5001 20.6255 16.5001C19.4848 16.5001 18.5628 17.4221 18.5628 18.5628V26.8124H14.4373V12.3746H18.5628V14.9343C19.4123 13.7662 20.7156 12.3746 22.1718 12.3746C24.7376 12.3746 26.8124 14.6827 26.8124 17.5311L26.8125 26.8124Z" fill="#1D1D20"/>
</svg>
