<svg width="22" height="23" viewBox="0 0 22 23" fill="#1D1D20" xmlns="http://www.w3.org/2000/svg">
<path d="M4.42444 10.0211C6.18444 13.48 9.02 16.3033 12.4789 18.0756L15.1678 15.3867C15.4978 15.0567 15.9867 14.9467 16.4144 15.0933C17.7833 15.5456 19.2622 15.79 20.7778 15.79C21.45 15.79 22 16.34 22 17.0122V21.2778C22 21.95 21.45 22.5 20.7778 22.5C9.30111 22.5 0 13.1989 0 1.72222C0 1.05 0.55 0.5 1.22222 0.5L5.5 0.5C6.17222 0.5 6.72222 1.05 6.72222 1.72222C6.72222 3.25 6.96667 4.71667 7.41889 6.08556C7.55333 6.51333 7.45555 6.99 7.11333 7.33222L4.42444 10.0211Z" fill="#1D1D20"/>
</svg>
